<svg width="512" height="512" viewBox="0 0 512 512" fill="none" xmlns="http://www.w3.org/2000/svg">
  <rect width="512" height="512" rx="28" fill="#1C0F19"/>
  <rect x="62" y="82" width="388" height="348" rx="24" fill="url(#paint0_linear)"/>
  <circle cx="180" cy="188" r="72" fill="#FF96BB" fill-opacity="0.92"/>
  <circle cx="332" cy="188" r="72" fill="#FF7CAB" fill-opacity="0.92"/>
  <path d="M120 228C120 306 182 352 256 404C330 352 392 306 392 228C392 197 379 168 357 149C335 130 306 120 278 120C249 120 224 133 206 157C188 133 163 120 134 120C106 120 77 130 55 149C33 168 20 197 20 228H120Z" fill="url(#paint1_linear)" transform="translate(50 10)"/>
  <path d="M146 366C178 318 214 290 256 282C297 290 333 318 366 366" stroke="#FFE3EE" stroke-width="16" stroke-linecap="round"/>
  <circle cx="402" cy="126" r="22" fill="#FFF1F6" fill-opacity="0.9"/>
  <circle cx="116" cy="126" r="14" fill="#FFF1F6" fill-opacity="0.66"/>
  <defs>
    <linearGradient id="paint0_linear" x1="62" y1="82" x2="450" y2="430" gradientUnits="userSpaceOnUse">
      <stop stop-color="#5C1937"/>
      <stop offset="1" stop-color="#2B1021"/>
    </linearGradient>
    <linearGradient id="paint1_linear" x1="206" y1="120" x2="206" y2="404" gradientUnits="userSpaceOnUse">
      <stop stop-color="#FFD8E7"/>
      <stop offset="0.5" stop-color="#FF6B9E"/>
      <stop offset="1" stop-color="#B90E53"/>
    </linearGradient>
  </defs>
</svg>
