<svg width="320" height="320" viewBox="0 0 320 320" fill="none" xmlns="http://www.w3.org/2000/svg">
  <rect width="320" height="320" rx="28" fill="#FFF7F3"/>
  <rect x="14" y="14" width="292" height="292" rx="26" fill="url(#bg)" stroke="#FFB14A" stroke-width="6"/>
  <circle cx="160" cy="112" r="52" fill="#FFE2D6"/>
  <path d="M110 92C122 42 150 24 160 24C170 24 198 42 210 92C194 78 180 74 160 74C140 74 126 78 110 92Z" fill="#E14B34"/>
  <path d="M130 126C144 110 176 110 190 126V186H130V126Z" fill="#FFF9F7"/>
  <path d="M110 268C118 208 136 178 160 178C184 178 202 208 210 268H110Z" fill="#E14B34"/>
  <path d="M96 238C116 220 138 210 160 210C182 210 204 220 224 238L232 268H88L96 238Z" fill="#1E315E"/>
  <circle cx="145" cy="118" r="5" fill="#243A73"/><circle cx="175" cy="118" r="5" fill="#243A73"/>
  <path d="M146 140C153 145 167 145 174 140" stroke="#B55D54" stroke-width="4" stroke-linecap="round"/>
  <path d="M132 64L160 40L188 64" stroke="#FFD97F" stroke-width="12" stroke-linecap="round"/>
  <rect x="126" y="178" width="68" height="18" rx="9" fill="#FFD97F"/>
  <rect x="82" y="22" width="156" height="36" rx="18" fill="#1E315E"/><text x="160" y="46" text-anchor="middle" fill="#fff" font-family="Arial, sans-serif" font-size="18" font-weight="700">완전체</text>
  <text x="160" y="294" text-anchor="middle" fill="#17314F" font-family="Arial, sans-serif" font-size="20" font-weight="700">불꽃 아이돌 리아</text>
  <defs><linearGradient id="bg" x1="160" y1="14" x2="160" y2="306" gradientUnits="userSpaceOnUse"><stop stop-color="#FFF2EA"/><stop offset="1" stop-color="#FFB08F"/></linearGradient></defs>
</svg>
