<svg width="320" height="320" viewBox="0 0 320 320" fill="none" xmlns="http://www.w3.org/2000/svg">
  <rect width="320" height="320" rx="28" fill="#F6FAFF"/>
  <rect x="20" y="20" width="280" height="280" rx="24" fill="url(#bg)"/>
  <circle cx="160" cy="122" r="48" fill="#FFE3DB"/>
  <path d="M118 92C126 58 154 42 160 42C166 42 194 58 202 92C191 83 178 79 160 79C142 79 129 83 118 92Z" fill="#E45439"/>
  <path d="M136 118C144 110 176 110 184 118V176H136V118Z" fill="#FFF5F3"/>
  <path d="M118 270C122 214 136 182 160 182C184 182 198 214 202 270H118Z" fill="#E45439"/>
  <path d="M110 246C126 230 140 224 160 224C180 224 194 230 210 246L220 270H100L110 246Z" fill="#243A73"/>
  <circle cx="145" cy="124" r="5" fill="#243A73"/>
  <circle cx="175" cy="124" r="5" fill="#243A73"/>
  <path d="M146 144C153 149 167 149 174 144" stroke="#B55D54" stroke-width="4" stroke-linecap="round"/>
  <rect x="110" y="186" width="100" height="16" rx="8" fill="#FFD17A"/>
  <text x="160" y="292" text-anchor="middle" fill="#17314F" font-family="Arial, sans-serif" font-size="20" font-weight="700">불꽃 아이돌 리아</text>
  <defs>
    <linearGradient id="bg" x1="160" y1="20" x2="160" y2="300" gradientUnits="userSpaceOnUse">
      <stop stop-color="#FFF2EF"/>
      <stop offset="1" stop-color="#F7C2B0"/>
    </linearGradient>
  </defs>
</svg>
