<svg width="320" height="320" viewBox="0 0 320 320" fill="none" xmlns="http://www.w3.org/2000/svg">
  <rect width="320" height="320" rx="28" fill="#FFF9F4"/>
  <rect x="10" y="10" width="300" height="300" rx="28" fill="url(#bg)" stroke="#FFD37F" stroke-width="8"/>
  <circle cx="160" cy="110" r="54" fill="#FFE5DD"/>
  <path d="M106 90C120 34 150 18 160 18C170 18 200 34 214 90C196 74 181 70 160 70C139 70 124 74 106 90Z" fill="#D93B2A"/>
  <path d="M128 126C144 108 176 108 192 126V190H128V126Z" fill="#FFFDFC"/>
  <path d="M106 270C116 206 136 176 160 176C184 176 204 206 214 270H106Z" fill="#D93B2A"/>
  <path d="M90 236C112 214 136 202 160 202C184 202 208 214 230 236L240 270H80L90 236Z" fill="#17284A"/>
  <circle cx="145" cy="116" r="5" fill="#243A73"/><circle cx="175" cy="116" r="5" fill="#243A73"/>
  <path d="M146 138C153 143 167 143 174 138" stroke="#B55D54" stroke-width="4" stroke-linecap="round"/>
  <path d="M122 56L160 24L198 56" stroke="#FFE189" stroke-width="14" stroke-linecap="round"/>
  <path d="M112 80L160 44L208 80" stroke="#FFE189" stroke-width="10" stroke-linecap="round"/>
  <circle cx="160" cy="188" r="14" fill="#FFE189"/>
  <rect x="74" y="20" width="172" height="38" rx="19" fill="#8B1E1E"/><text x="160" y="45" text-anchor="middle" fill="#fff" font-family="Arial, sans-serif" font-size="18" font-weight="700">궁극체</text>
  <text x="160" y="294" text-anchor="middle" fill="#17314F" font-family="Arial, sans-serif" font-size="20" font-weight="700">불꽃 아이돌 리아</text>
  <defs><linearGradient id="bg" x1="160" y1="10" x2="160" y2="310" gradientUnits="userSpaceOnUse"><stop stop-color="#FFF0E7"/><stop offset="1" stop-color="#FF9E87"/></linearGradient></defs>
</svg>
