<svg width="320" height="320" viewBox="0 0 320 320" fill="none" xmlns="http://www.w3.org/2000/svg">
  <rect width="320" height="320" rx="28" fill="#F8FFF2"/>
  <rect x="10" y="10" width="300" height="300" rx="28" fill="url(#bg)" stroke="#F0D07A" stroke-width="8"/>
  <ellipse cx="160" cy="270" rx="96" ry="18" fill="#C8E1A0"/>
  <circle cx="160" cy="108" r="50" fill="#FFE8D8"/>
  <path d="M116 88C128 40 148 18 160 18C172 18 192 40 204 88C188 76 176 72 160 72C144 72 132 76 116 88Z" fill="#5E8D3C"/>
  <path d="M126 126C142 108 178 108 194 126V188H126V126Z" fill="#FBFFF8"/>
  <path d="M104 270C116 210 136 176 160 176C184 176 204 210 216 270H104Z" fill="#5E8D3C"/>
  <path d="M160 172V246" stroke="#F0D07A" stroke-width="14" stroke-linecap="round"/>
  <path d="M98 212C126 192 194 192 222 212" stroke="#F0D07A" stroke-width="16" stroke-linecap="round"/>
  <path d="M110 78L92 56" stroke="#B6D87D" stroke-width="10" stroke-linecap="round"/><path d="M210 78L228 56" stroke="#B6D87D" stroke-width="10" stroke-linecap="round"/>
  <circle cx="160" cy="190" r="14" fill="#F0D07A"/>
  <rect x="74" y="20" width="172" height="38" rx="19" fill="#355920"/><text x="160" y="45" text-anchor="middle" fill="#fff" font-family="Arial, sans-serif" font-size="18" font-weight="700">궁극체</text>
  <text x="160" y="294" text-anchor="middle" fill="#17314F" font-family="Arial, sans-serif" font-size="20" font-weight="700">수확 요정 벨</text>
  <defs><linearGradient id="bg" x1="160" y1="10" x2="160" y2="310" gradientUnits="userSpaceOnUse"><stop stop-color="#F6FFE4"/><stop offset="1" stop-color="#B3D77A"/></linearGradient></defs>
</svg>
