<svg width="320" height="320" viewBox="0 0 320 320" fill="none" xmlns="http://www.w3.org/2000/svg">
  <rect width="320" height="320" rx="28" fill="#F8FFF2"/>
  <rect x="14" y="14" width="292" height="292" rx="26" fill="url(#bg)" stroke="#DAB45D" stroke-width="6"/>
  <ellipse cx="160" cy="270" rx="92" ry="18" fill="#CDE3AA"/>
  <circle cx="160" cy="112" r="48" fill="#FFE8D8"/>
  <path d="M120 92C130 48 148 28 160 28C172 28 190 48 200 92C186 82 174 78 160 78C146 78 134 82 120 92Z" fill="#6D9F49"/>
  <path d="M128 130C142 114 178 114 192 130V184H128V130Z" fill="#FBFFF7"/>
  <path d="M108 266C118 212 136 178 160 178C184 178 202 212 212 266H108Z" fill="#6D9F49"/>
  <path d="M160 176V246" stroke="#E7C568" stroke-width="12" stroke-linecap="round"/>
  <path d="M104 214C128 196 192 196 216 214" stroke="#E7C568" stroke-width="14" stroke-linecap="round"/>
  <circle cx="160" cy="188" r="12" fill="#E7C568"/>
  <rect x="82" y="22" width="156" height="36" rx="18" fill="#507A33"/><text x="160" y="46" text-anchor="middle" fill="#fff" font-family="Arial, sans-serif" font-size="18" font-weight="700">완전체</text>
  <text x="160" y="294" text-anchor="middle" fill="#17314F" font-family="Arial, sans-serif" font-size="20" font-weight="700">수확 요정 벨</text>
  <defs><linearGradient id="bg" x1="160" y1="14" x2="160" y2="306" gradientUnits="userSpaceOnUse"><stop stop-color="#F6FFE5"/><stop offset="1" stop-color="#C3DF90"/></linearGradient></defs>
</svg>
