<svg width="320" height="320" viewBox="0 0 320 320" fill="none" xmlns="http://www.w3.org/2000/svg">
  <rect width="320" height="320" rx="28" fill="#F6FAFF"/>
  <rect x="20" y="20" width="280" height="280" rx="24" fill="url(#bg)"/>
  <ellipse cx="160" cy="270" rx="84" ry="16" fill="#D3E6B5"/>
  <circle cx="160" cy="118" r="44" fill="#FFE9D9"/>
  <path d="M126 102C132 70 148 52 160 52C172 52 188 70 194 102C182 95 172 92 160 92C148 92 138 95 126 102Z" fill="#8AB45A"/>
  <path d="M130 132C142 116 178 116 190 132V178H130V132Z" fill="#F4FFF1"/>
  <path d="M116 262C122 220 138 186 160 186C182 186 198 220 204 262H116Z" fill="#7BAE59"/>
  <path d="M98 218C128 196 192 196 222 218" stroke="#DAB45D" stroke-width="12" stroke-linecap="round"/>
  <path d="M160 186V244" stroke="#DAB45D" stroke-width="10" stroke-linecap="round"/>
  <circle cx="145" cy="120" r="5" fill="#25415A"/>
  <circle cx="175" cy="120" r="5" fill="#25415A"/>
  <path d="M146 140C153 145 167 145 174 140" stroke="#A8785A" stroke-width="4" stroke-linecap="round"/>
  <text x="160" y="292" text-anchor="middle" fill="#17314F" font-family="Arial, sans-serif" font-size="20" font-weight="700">수확 요정 벨</text>
  <defs>
    <linearGradient id="bg" x1="160" y1="20" x2="160" y2="300" gradientUnits="userSpaceOnUse">
      <stop stop-color="#F6FFE8"/>
      <stop offset="1" stop-color="#CBE7A5"/>
    </linearGradient>
  </defs>
</svg>
