<svg width="320" height="320" viewBox="0 0 320 320" fill="none" xmlns="http://www.w3.org/2000/svg">
  <rect width="320" height="320" rx="28" fill="#F6FAFF"/>
  <rect x="20" y="20" width="280" height="280" rx="24" fill="url(#bg)"/>
  <path d="M88 234C116 208 140 194 176 190C210 186 228 174 242 150" stroke="#1B4E88" stroke-width="16" stroke-linecap="round"/>
  <circle cx="160" cy="108" r="44" fill="#FFE8D8"/>
  <path d="M126 92C134 62 150 48 160 48C170 48 186 62 194 92C184 86 174 82 160 82C146 82 136 86 126 92Z" fill="#243A73"/>
  <path d="M130 126C142 114 178 114 190 126V176H130V126Z" fill="#F4F8FF"/>
  <path d="M122 258C130 212 142 184 160 184C178 184 190 212 198 258H122Z" fill="#3A78C3"/>
  <path d="M96 214L136 198" stroke="#243A73" stroke-width="12" stroke-linecap="round"/>
  <path d="M184 206L228 224" stroke="#243A73" stroke-width="12" stroke-linecap="round"/>
  <path d="M132 258L104 280" stroke="#243A73" stroke-width="12" stroke-linecap="round"/>
  <path d="M190 258L220 280" stroke="#243A73" stroke-width="12" stroke-linecap="round"/>
  <circle cx="145" cy="110" r="5" fill="#243A73"/>
  <circle cx="175" cy="110" r="5" fill="#243A73"/>
  <path d="M146 130C153 135 167 135 174 130" stroke="#A56B5A" stroke-width="4" stroke-linecap="round"/>
  <text x="160" y="292" text-anchor="middle" fill="#17314F" font-family="Arial, sans-serif" font-size="20" font-weight="700">러너 제트</text>
  <defs>
    <linearGradient id="bg" x1="160" y1="20" x2="160" y2="300" gradientUnits="userSpaceOnUse">
      <stop stop-color="#EFF6FF"/>
      <stop offset="1" stop-color="#BED8FF"/>
    </linearGradient>
  </defs>
</svg>
