<svg width="320" height="320" viewBox="0 0 320 320" fill="none" xmlns="http://www.w3.org/2000/svg">
  <rect width="320" height="320" rx="28" fill="#F4F9FF"/>
  <rect x="10" y="10" width="300" height="300" rx="28" fill="url(#bg)" stroke="#89E0FF" stroke-width="8"/>
  <path d="M80 232C122 196 148 184 184 180C220 176 242 158 258 130" stroke="#142F5A" stroke-width="20" stroke-linecap="round"/>
  <circle cx="160" cy="104" r="48" fill="#FFE8D8"/>
  <path d="M118 88C130 42 150 18 160 18C170 18 190 42 202 88C188 78 176 74 160 74C144 74 132 78 118 88Z" fill="#17284A"/>
  <path d="M126 122C142 106 178 106 194 122V184H126V122Z" fill="#F8FBFF"/>
  <path d="M114 266C126 208 142 180 160 180C178 180 194 208 206 266H114Z" fill="#24548F"/>
  <path d="M92 208L138 192" stroke="#17284A" stroke-width="14" stroke-linecap="round"/>
  <path d="M186 202L236 220" stroke="#17284A" stroke-width="14" stroke-linecap="round"/>
  <path d="M132 266L100 290" stroke="#17284A" stroke-width="14" stroke-linecap="round"/>
  <path d="M190 266L224 290" stroke="#17284A" stroke-width="14" stroke-linecap="round"/>
  <path d="M196 72L244 46" stroke="#B8EDFF" stroke-width="12" stroke-linecap="round"/>
  <path d="M86 132L48 148" stroke="#B8EDFF" stroke-width="12" stroke-linecap="round"/>
  <rect x="74" y="20" width="172" height="38" rx="19" fill="#0E2142"/><text x="160" y="45" text-anchor="middle" fill="#fff" font-family="Arial, sans-serif" font-size="18" font-weight="700">궁극체</text>
  <text x="160" y="294" text-anchor="middle" fill="#17314F" font-family="Arial, sans-serif" font-size="20" font-weight="700">러너 제트</text>
  <defs><linearGradient id="bg" x1="160" y1="10" x2="160" y2="310" gradientUnits="userSpaceOnUse"><stop stop-color="#EEF6FF"/><stop offset="1" stop-color="#94C6FF"/></linearGradient></defs>
</svg>
