<svg width="320" height="320" viewBox="0 0 320 320" fill="none" xmlns="http://www.w3.org/2000/svg">
  <rect width="320" height="320" rx="28" fill="#F4F9FF"/>
  <rect x="18" y="18" width="284" height="284" rx="24" fill="url(#bg)" stroke="#5AA0F2" stroke-width="4"/>
  <path d="M84 232C116 204 142 192 178 188C210 184 230 170 246 144" stroke="#1B4E88" stroke-width="16" stroke-linecap="round"/>
  <circle cx="160" cy="108" r="44" fill="#FFE8D8"/>
  <path d="M126 92C134 62 150 48 160 48C170 48 186 62 194 92C184 86 174 82 160 82C146 82 136 86 126 92Z" fill="#243A73"/>
  <path d="M130 126C142 114 178 114 190 126V176H130V126Z" fill="#F4F8FF"/>
  <path d="M122 258C130 212 142 184 160 184C178 184 190 212 198 258H122Z" fill="#3A78C3"/>
  <path d="M96 214L136 198" stroke="#243A73" stroke-width="12" stroke-linecap="round"/>
  <path d="M184 206L228 224" stroke="#243A73" stroke-width="12" stroke-linecap="round"/>
  <path d="M132 258L104 280" stroke="#243A73" stroke-width="12" stroke-linecap="round"/>
  <path d="M190 258L220 280" stroke="#243A73" stroke-width="12" stroke-linecap="round"/>
  <path d="M204 88L230 72" stroke="#83C8FF" stroke-width="8" stroke-linecap="round"/><path d="M96 116L72 126" stroke="#83C8FF" stroke-width="8" stroke-linecap="round"/>
  <rect x="90" y="24" width="140" height="34" rx="17" fill="#3A78C3"/><text x="160" y="46" text-anchor="middle" fill="#fff" font-family="Arial, sans-serif" font-size="18" font-weight="700">성장기</text>
  <text x="160" y="292" text-anchor="middle" fill="#17314F" font-family="Arial, sans-serif" font-size="20" font-weight="700">러너 제트</text>
  <defs><linearGradient id="bg" x1="160" y1="18" x2="160" y2="302" gradientUnits="userSpaceOnUse"><stop stop-color="#EEF6FF"/><stop offset="1" stop-color="#BED9FF"/></linearGradient></defs>
</svg>
