<svg width="320" height="320" viewBox="0 0 320 320" fill="none" xmlns="http://www.w3.org/2000/svg">
  <rect width="320" height="320" rx="28" fill="#F4F9FF"/>
  <rect x="14" y="14" width="292" height="292" rx="26" fill="url(#bg)" stroke="#6C86FF" stroke-width="6"/>
  <path d="M82 232C120 200 146 188 182 184C216 180 236 164 252 138" stroke="#173E74" stroke-width="18" stroke-linecap="round"/>
  <circle cx="160" cy="106" r="46" fill="#FFE8D8"/>
  <path d="M122 90C132 50 150 30 160 30C170 30 188 50 198 90C186 82 174 78 160 78C146 78 134 82 122 90Z" fill="#1E315E"/>
  <path d="M128 124C142 110 178 110 192 124V180H128V124Z" fill="#F7FAFF"/>
  <path d="M118 262C128 210 142 182 160 182C178 182 192 210 202 262H118Z" fill="#2E63A8"/>
  <path d="M94 212L136 196" stroke="#1E315E" stroke-width="12" stroke-linecap="round"/>
  <path d="M186 204L232 222" stroke="#1E315E" stroke-width="12" stroke-linecap="round"/>
  <path d="M132 262L102 284" stroke="#1E315E" stroke-width="12" stroke-linecap="round"/>
  <path d="M190 262L222 284" stroke="#1E315E" stroke-width="12" stroke-linecap="round"/>
  <path d="M198 78L236 58" stroke="#A6DAFF" stroke-width="10" stroke-linecap="round"/>
  <path d="M90 126L58 140" stroke="#A6DAFF" stroke-width="10" stroke-linecap="round"/>
  <rect x="82" y="22" width="156" height="36" rx="18" fill="#1E315E"/><text x="160" y="46" text-anchor="middle" fill="#fff" font-family="Arial, sans-serif" font-size="18" font-weight="700">완전체</text>
  <text x="160" y="294" text-anchor="middle" fill="#17314F" font-family="Arial, sans-serif" font-size="20" font-weight="700">러너 제트</text>
  <defs><linearGradient id="bg" x1="160" y1="14" x2="160" y2="306" gradientUnits="userSpaceOnUse"><stop stop-color="#EDF5FF"/><stop offset="1" stop-color="#AFCBFF"/></linearGradient></defs>
</svg>
