<svg width="320" height="320" viewBox="0 0 320 320" fill="none" xmlns="http://www.w3.org/2000/svg">
  <rect width="320" height="320" rx="28" fill="#FFF5FD"/>
  <rect x="10" y="10" width="300" height="300" rx="28" fill="url(#bg)" stroke="#FFD982" stroke-width="8"/>
  <circle cx="160" cy="108" r="50" fill="#FFE6E3"/>
  <path d="M118 88C130 40 150 18 160 18C170 18 190 40 202 88C187 76 174 72 160 72C146 72 133 76 118 88Z" fill="#68329C"/>
  <path d="M124 126C142 108 178 108 196 126V188H124V126Z" fill="#FFF9FE"/>
  <path d="M104 270C116 210 136 176 160 176C184 176 204 210 216 270H104Z" fill="#BD458E"/>
  <path d="M160 52L172 78H200L178 92L188 120L160 104L132 120L142 92L120 78H148L160 52Z" fill="#FFE58A"/>
  <path d="M110 82L118 98H136L122 108L128 126L110 116L92 126L98 108L84 98H102L110 82Z" fill="#FFE58A"/>
  <path d="M210 82L218 98H236L222 108L228 126L210 116L192 126L198 108L184 98H202L210 82Z" fill="#FFE58A"/>
  <circle cx="160" cy="188" r="14" fill="#FFE58A"/>
  <rect x="74" y="20" width="172" height="38" rx="19" fill="#54257F"/><text x="160" y="45" text-anchor="middle" fill="#fff" font-family="Arial, sans-serif" font-size="18" font-weight="700">궁극체</text>
  <text x="160" y="294" text-anchor="middle" fill="#17314F" font-family="Arial, sans-serif" font-size="20" font-weight="700">스타 에린</text>
  <defs><linearGradient id="bg" x1="160" y1="10" x2="160" y2="310" gradientUnits="userSpaceOnUse"><stop stop-color="#FFF1FE"/><stop offset="1" stop-color="#E29AD8"/></linearGradient></defs>
</svg>
