<svg width="320" height="320" viewBox="0 0 320 320" fill="none" xmlns="http://www.w3.org/2000/svg">
  <rect width="320" height="320" rx="28" fill="#F6FAFF"/>
  <rect x="20" y="20" width="280" height="280" rx="24" fill="url(#bg)"/>
  <circle cx="160" cy="116" r="46" fill="#FFE6E3"/>
  <path d="M126 96C132 62 150 46 160 46C170 46 188 62 194 96C183 88 172 84 160 84C148 84 137 88 126 96Z" fill="#8C4BC2"/>
  <path d="M126 132C140 118 180 118 194 132V180H126V132Z" fill="#FFF7FE"/>
  <path d="M112 262C120 216 136 184 160 184C184 184 200 216 208 262H112Z" fill="#D663A6"/>
  <path d="M160 70L166 84H182L169 93L174 108L160 99L146 108L151 93L138 84H154L160 70Z" fill="#FFD775"/>
  <path d="M112 92L116 100H124L118 105L120 113L112 108L104 113L106 105L100 100H108L112 92Z" fill="#FFD775"/>
  <path d="M208 92L212 100H220L214 105L216 113L208 108L200 113L202 105L196 100H204L208 92Z" fill="#FFD775"/>
  <circle cx="145" cy="118" r="5" fill="#243A73"/>
  <circle cx="175" cy="118" r="5" fill="#243A73"/>
  <path d="M146 138C153 143 167 143 174 138" stroke="#AA6470" stroke-width="4" stroke-linecap="round"/>
  <text x="160" y="292" text-anchor="middle" fill="#17314F" font-family="Arial, sans-serif" font-size="20" font-weight="700">스타 에린</text>
  <defs>
    <linearGradient id="bg" x1="160" y1="20" x2="160" y2="300" gradientUnits="userSpaceOnUse">
      <stop stop-color="#FFF2FF"/>
      <stop offset="1" stop-color="#F2C2EA"/>
    </linearGradient>
  </defs>
</svg>
