<svg width="1600" height="900" viewBox="0 0 1600 900" fill="none" xmlns="http://www.w3.org/2000/svg">
  <rect width="1600" height="900" fill="#DDD7CC"/>
  <rect x="0" y="0" width="1600" height="120" fill="#1C1C1A"/>
  <rect x="0" y="120" width="1600" height="500" fill="#E7E0D4"/>
  <rect x="980" y="0" width="620" height="360" fill="#D7B18A"/>
  <rect x="1008" y="26" width="564" height="310" rx="16" fill="#D5A77C"/>
  <rect x="1100" y="88" width="210" height="146" rx="18" fill="#233246"/>
  <rect x="1326" y="92" width="92" height="128" rx="12" fill="#39475A"/>
  <rect x="1440" y="110" width="20" height="120" rx="10" fill="#D0353B"/>
  <rect x="1474" y="108" width="20" height="120" rx="10" fill="#2348C5"/>
  <rect x="1188" y="42" width="64" height="38" rx="10" fill="#1F2A3D"/>
  <rect x="1264" y="42" width="34" height="130" rx="12" fill="#445368"/>
  <rect x="78" y="404" width="1100" height="376" rx="34" fill="#322827"/>
  <rect x="108" y="444" width="1040" height="304" rx="26" fill="#4B3836"/>
  <path d="M504 666C556 560 664 500 816 484C978 466 1110 512 1230 610V780H396C402 740 442 700 504 666Z" fill="#111214"/>
  <path d="M678 478C748 424 858 404 924 448C968 478 990 528 982 582H756C722 548 694 516 678 478Z" fill="#15181D"/>
  <path d="M790 430C834 390 914 376 968 418C998 442 1016 482 1016 520C972 522 936 514 904 496C854 466 816 452 790 430Z" fill="#0F1216"/>
  <path d="M900 500C958 470 1048 486 1128 560L1222 650L1118 670C1026 612 934 582 848 582L770 580C778 548 820 520 900 500Z" fill="#101217"/>
  <path d="M1046 590C1126 612 1218 672 1326 790H1200C1120 724 1048 688 980 674L1046 590Z" fill="#0C0F14"/>
  <path d="M838 580L944 580L988 720L864 718L838 580Z" fill="#E2D1B7"/>
  <path d="M728 564C770 554 812 558 850 582L848 642C794 636 748 616 710 586L728 564Z" fill="#E8DCC4"/>
  <circle cx="800" cy="422" r="58" fill="#E7D6BE"/>
  <path d="M746 408C760 360 824 336 872 358C898 370 916 390 926 418C870 438 822 446 746 408Z" fill="#101216"/>
  <rect x="0" y="780" width="1600" height="120" fill="#F4F0EA"/>
  <rect x="118" y="324" width="210" height="166" rx="18" fill="#F5F5F4" fill-opacity="0.88"/>
  <rect x="360" y="338" width="214" height="152" rx="16" fill="#F5F5F4" fill-opacity="0.84"/>
  <rect x="246" y="522" width="220" height="86" rx="22" fill="#F7F7F6"/>
  <path d="M304 510L324 392H518L536 510H304Z" fill="#D2D2CF"/>
  <circle cx="290" cy="560" r="34" fill="#FF9FBC"/>
  <path d="M252 554C286 534 334 532 372 548" stroke="#EDECEC" stroke-width="18" stroke-linecap="round"/>
</svg>
